<svg xmlns="http://www.w3.org/2000/svg" width="48" height="48" viewBox="0 0 48 48">
  <path fill="#EA4335" d="M24 9.5c3.54 0 6.72 1.23 9.22 3.66l6.92-6.92C35.9 2.51 30.47 0 24 0 14.64 0 6.44 5.78 2.56 14.17l8.15 6.32C12.73 14.07 17.96 9.5 24 9.5z"/>
  <path fill="#4285F4" d="M46.5 24.5c0-1.64-.15-3.21-.43-4.72H24v9.02h12.65c-.55 2.87-2.21 5.3-4.69 6.91l7.42 5.77C44.43 36.41 46.5 30.87 46.5 24.5z"/>
  <path fill="#34A853" d="M10.71 28.49a14.5 14.5 0 0 1 0-8.98l-8.15-6.32A23.938 23.938 0 0 0 0 24c0 3.87.89 7.53 2.56 10.81l8.15-6.32z"/>
  <path fill="#FBBC05" d="M24 47.5c6.47 0 11.9-2.51 15.89-6.72l-7.42-5.77c-2.13 1.43-4.89 2.27-8.47 2.27-6.04 0-11.27-4.57-13.29-10.99l-8.15 6.32C6.44 42.22 14.64 47.5 24 47.5z"/>
</svg>
