<?xml version="1.0" encoding="UTF-8" standalone="no"?>
<!-- Created with Inkscape (http://www.inkscape.org/) -->

<svg
   width="96.582329mm"
   height="13.005916mm"
   viewBox="0 0 96.582329 13.005916"
   version="1.1"
   id="svg1"
   xml:space="preserve"
   xmlns="http://www.w3.org/2000/svg"
   xmlns:svg="http://www.w3.org/2000/svg"><defs
     id="defs1" /><g
     id="layer1"
     transform="translate(-51.360513,-113.49942)"><g
       id="g12"><g
         transform="translate(54.847476,-143.97281)"
         id="g9"><!-- i --><path
           class="c1"
           d="m 91.598824,270.45333 c 0.917771,0 1.463473,-0.55397 1.463473,-1.52135 v -6.34172 c 0,-0.95911 -0.545702,-1.52135 -1.463473,-1.52135 -0.92604,0 -1.463474,0.56224 -1.463474,1.52135 v 6.34172 c 0,0.96738 0.537434,1.52135 1.463474,1.52135 z"
           id="path1-9" /><path
           class="c2"
           d="m 91.598824,260.34131 c 0.851626,0 1.496546,-0.62012 1.496546,-1.4304 0,-0.81856 -0.64492,-1.43867 -1.496546,-1.43867 -0.851626,0 -1.504815,0.62011 -1.504815,1.43867 0,0.81028 0.653189,1.4304 1.504815,1.4304 z"
           id="path2-7" /><!-- a --><path
           class="c1"
           d="m 83.132172,270.39546 c 1.083136,0 2.182808,-0.50437 2.670633,-1.41387 h 0.05788 v 0.20671 c 0.08268,0.85989 0.636653,1.26503 1.413865,1.26503 0.835089,0 1.438669,-0.47129 1.438669,-1.47174 v -4.89478 c 0,-1.81074 -1.595765,-3.0427 -4.001815,-3.0427 -2.067054,0 -3.571868,0.67799 -3.952206,1.7942 -0.06615,0.17363 -0.09095,0.32246 -0.09095,0.52916 0,0.62839 0.496092,1.0666 1.19889,1.0666 0.446484,0 0.818553,-0.16536 1.15755,-0.50436 0.562239,-0.61185 0.909504,-0.79375 1.537888,-0.79375 0.768944,0 1.281573,0.39688 1.281573,1.11621 v 0.51263 l -2.108395,0.12403 c -2.331636,0.14055 -3.629745,1.08313 -3.629745,2.76985 0,1.62883 1.347719,2.73678 3.026166,2.73678 z m 1.041795,-2.01745 c -0.702798,0 -1.174086,-0.34726 -1.174086,-0.91777 0,-0.52917 0.438215,-0.8847 1.207159,-0.94258 l 1.637106,-0.10748 v 0.62011 c 0,0.80202 -0.777212,1.34772 -1.670179,1.34772 z"
           id="path3-2" /><!-- dot --><path
           class="c2"
           d="m 77.278278,270.37066 c 0.851626,0 1.537887,-0.68626 1.537887,-1.53789 0,-0.85162 -0.686261,-1.53788 -1.537887,-1.53788 -0.851626,0 -1.52962,0.68626 -1.52962,1.53788 0,0.85163 0.677994,1.53789 1.52962,1.53789 z"
           id="path4-6" /><!-- o --><path
           class="c1"
           d="m 69.903035,270.47815 c 2.835997,0 4.605394,-1.71152 4.605394,-4.72115 0,-2.95175 -1.794202,-4.71288 -4.605394,-4.71288 -2.794656,0 -4.605395,1.76939 -4.605395,4.71288 0,3.00136 1.769398,4.72115 4.605395,4.72115 z m 0,-2.14974 c -1.008722,0 -1.628838,-0.91777 -1.628838,-2.56314 0,-1.62057 0.636652,-2.57142 1.628838,-2.57142 1.000453,0 1.637106,0.95085 1.637106,2.57142 0,1.64537 -0.636653,2.56314 -1.637106,2.56314 z"
           id="path5" /><!-- b --><path
           class="c1"
           d="m 56.582943,270.45334 c 0.859894,0 1.463473,-0.48782 1.463473,-1.50481 v -0.23151 h 0.05788 c 0.454752,1.04179 1.446937,1.67845 2.761583,1.67845 2.257222,0 3.571868,-1.69499 3.571868,-4.6302 0,-2.94349 -1.322914,-4.63847 -3.596673,-4.63847 -1.281573,0 -2.26549,0.64492 -2.720242,1.72805 h -0.05788 v -3.19153 c 0,-1.02525 -0.611848,-1.52135 -1.463474,-1.52135 -0.859894,0 -1.471742,0.4961 -1.471742,1.52135 v 9.28521 c 0,1.01699 0.60358,1.50481 1.455207,1.50481 z m 3.166725,-2.34817 c -1.025258,0 -1.694983,-0.90124 -1.703252,-2.3399 0.0083,-1.42214 0.677994,-2.34818 1.703252,-2.34818 1.025259,0 1.686716,0.91777 1.686716,2.34818 0,1.4304 -0.653189,2.3399 -1.686716,2.3399 z"
           id="path6" /><!-- m --><path
           class="c1"
           d="m 41.385966,270.45334 c 0.859894,0 1.471742,-0.49609 1.471742,-1.52135 v -3.99355 c 0,-0.88469 0.512629,-1.47174 1.306377,-1.47174 0.802017,0 1.248501,0.4961 1.248501,1.39733 v 4.06796 c 0,1.02526 0.537433,1.52135 1.397328,1.52135 0.859894,0 1.405596,-0.49609 1.405596,-1.52135 v -4.01008 c 0,-0.8847 0.496093,-1.45521 1.289841,-1.45521 0.826821,0 1.265037,0.48783 1.265037,1.4304 v 4.03489 c 0,1.02526 0.603579,1.52135 1.463473,1.52135 0.859894,0 1.471742,-0.49609 1.471742,-1.52135 v -4.77903 c 0,-1.82727 -1.198891,-3.0675 -2.96002,-3.0675 -1.339451,0 -2.430855,0.76067 -2.77812,1.91822 h -0.05788 c -0.256315,-1.22369 -1.165818,-1.91822 -2.505269,-1.91822 -1.231963,0 -2.215881,0.7524 -2.571414,1.90995 h -0.05788 v -0.43821 c 0,-1.00872 -0.587043,-1.48828 -1.422133,-1.48828 -0.843358,0 -1.430401,0.48783 -1.430401,1.48828 v 6.37479 c 0,1.02526 0.60358,1.52135 1.463474,1.52135 z"
           id="path7" /><!-- e --><path
           class="c1"
           d="m 34.465473,270.47815 c 1.794202,0 3.249407,-0.63666 3.844719,-1.69499 0.132291,-0.21497 0.198437,-0.43821 0.198437,-0.66145 0,-0.64492 -0.504361,-1.02526 -1.099672,-1.02526 -0.363802,0 -0.60358,0.0992 -0.909504,0.3886 -0.653189,0.66146 -1.207159,0.91778 -2.009176,0.91778 -1.058331,0 -1.777665,-0.74414 -1.777665,-1.83555 v -0.16536 h 4.894782 c 0.760675,0 1.182354,-0.41341 1.182354,-1.15755 0,-2.43086 -1.761129,-4.20025 -4.44003,-4.20025 -2.745047,0 -4.481372,1.84381 -4.481372,4.76249 0,2.92694 1.71152,4.67154 4.597127,4.67154 z m -1.71152,-5.74641 c 0.07441,-0.94258 0.744139,-1.60403 1.653642,-1.60403 0.917772,0 1.570961,0.62838 1.62057,1.60403 z"
           id="path8" /><!-- n --><path
           class="c1"
           d="m 21.418232,270.45335 c 0.851626,0 1.463474,-0.49609 1.463474,-1.52135 v -3.76204 c 0,-0.99218 0.578775,-1.69498 1.513083,-1.69498 0.959113,0 1.446937,0.61185 1.446937,1.63711 v 3.81991 c 0,1.02526 0.60358,1.52135 1.463474,1.52135 0.859894,0 1.463474,-0.49609 1.463474,-1.52135 v -4.4483 c 0,-2.14146 -1.116209,-3.39823 -3.125385,-3.39823 -1.380791,0 -2.257222,0.61185 -2.72851,1.80247 h -0.05788 v -0.339 c 0,-0.93431 -0.587043,-1.48001 -1.488278,-1.48001 -0.901235,0 -1.422133,0.5457 -1.422133,1.47174 v 6.39133 c 0,1.02526 0.611848,1.52135 1.471742,1.52135 z"
           id="path9" /></g><g
         transform="matrix(0.04372795,0.04372795,-0.04372795,0.04372795,58.848158,111.14666)"
         id="g8"><rect
           class="c2"
           x="60"
           y="60"
           width="60"
           height="180"
           rx="15"
           ry="15"
           id="rect5" /><rect
           class="c1"
           x="120"
           y="0"
           width="60"
           height="180"
           rx="15"
           ry="15"
           id="rect6" /><rect
           class="c2"
           x="60"
           y="60"
           width="180"
           height="60"
           rx="15"
           ry="15"
           id="rect7" /><rect
           class="c1"
           x="0"
           y="120"
           width="180"
           height="60"
           rx="15"
           ry="15"
           id="rect8" /></g></g></g><style
     id="style1">
    .c1 { fill: #1A5490; }  /* your blue */
    .c2 { fill: #F37A1F; }  /* your orange */
  </style><style
     id="style1-8">
    .c1 { fill: #1A5490; }   /* orange */
    .c2 { fill: #F37A1F; }   /* navy   */
  </style><style
     id="style1-0">
    .c1 { fill:#1A5490; }
    .c2 { fill:#F37A1F; }
  </style></svg>
