<svg xmlns="http://www.w3.org/2000/svg" viewBox="0 0 101.32 16.30">
  <style>
    .c1 { fill:#F37A1F; }
    .c2 { fill:#1A5490; }
  </style>

  <!-- Icon -->
  <g transform="matrix(0.0527394,0.0527394,-0.0527394,0.0527394,9.03071,-2.34872)">
    <rect class="c1" x="60" y="60" width="60" height="180" rx="15" ry="15"/>
    <rect class="c2" x="120" y="0" width="60" height="180" rx="15" ry="15"/>
    <rect class="c1" x="60" y="60" width="180" height="60" rx="15" ry="15"/>
    <rect class="c2" x="0" y="120" width="180" height="60" rx="15" ry="15"/>
  </g>

  <!-- Text: attor.ai -->
  <g transform="matrix(1.2535137,0,0,1.2535137,30.76227,0)">
    <path class="c2" d="m 3.026095,12.92326 c 1.08314,0 2.18281,-0.50436 2.67064,-1.41386 h 0.0579 v 0.2067 c 0.0827,0.8599 0.63665,1.26504 1.41386,1.26504 0.8351,0 1.43868,-0.47129 1.43868,-1.47174 v -4.89479 c 0,-1.81075 -1.59577,-3.04271 -4.00183,-3.04271 -2.06705,0 -3.57187,0.67799 -3.95221,1.7942 -0.0661,0.17364 -0.0909,0.32246 -0.0909,0.52917 0,0.62838 0.49609,1.0666 1.19889,1.0666 0.44649,0 0.81856,-0.16536 1.15755,-0.50436 0.56224,-0.61185 0.90951,-0.79375 1.53789,-0.79375 0.76895,0 1.28158,0.39687 1.28158,1.11621 v 0.51263 l -2.1084,0.12402 c -2.33164,0.14056 -3.62975,1.08314 -3.62975,2.76986 0,1.62884 1.34772,2.73678 3.02617,2.73678 z m 1.0418,-2.01744 c -0.7028,0 -1.17409,-0.34727 -1.17409,-0.91778 0,-0.52916 0.43821,-0.8847 1.20716,-0.94258 l 1.63711,-0.10748 v 0.62011 c 0,0.80202 -0.77722,1.34773 -1.67018,1.34773 z"/>
    <path class="c2" d="m 10.740355,10.37665 c 0,1.67018 0.8847,2.53008 2.62102,2.53008 h 0.0744 c 1.13275,0 2.05879,-0.42995 2.05879,-1.28158 0,-0.67799 -0.38034,-0.96738 -1.03353,-1.04179 l -0.1819,-0.0248 c -0.41341,-0.0413 -0.60358,-0.26458 -0.60358,-0.82682 V 6.00006 h 0.71107 c 0.65319,0 1.08314,-0.42995 1.08314,-1.08314 0,-0.65319 -0.42995,-1.08314 -1.08314,-1.08314 h -0.71107 v -0.71933 c 0,-0.95085 -0.53743,-1.52136 -1.46347,-1.52136 -0.93431,0 -1.47175,0.57051 -1.47175,1.52136 v 0.71933 h -0.32246 c -0.65319,0 -1.08314,0.42168 -1.08314,1.08314 0,0.65319 0.42995,1.08314 1.08314,1.08314 h 0.32246 z"/>
    <path class="c2" d="m 17.239175,10.37665 c 0,1.67018 0.8847,2.53008 2.62103,2.53008 h 0.0744 c 1.13275,0 2.05879,-0.42995 2.05879,-1.28158 0,-0.67799 -0.38034,-0.96738 -1.03353,-1.04179 l -0.1819,-0.0248 c -0.41341,-0.0413 -0.60358,-0.26458 -0.60358,-0.82682 V 6.00006 h 0.71107 c 0.65319,0 1.08314,-0.42995 1.08314,-1.08314 0,-0.65319 -0.42995,-1.08314 -1.08314,-1.08314 h -0.71107 v -0.71933 c 0,-0.95085 -0.53743,-1.52136 -1.46348,-1.52136 -0.93431,0 -1.47174,0.57051 -1.47174,1.52136 v 0.71933 h -0.32246 c -0.65319,0 -1.08314,0.42168 -1.08314,1.08314 0,0.65319 0.42995,1.08314 1.08314,1.08314 h 0.32246 z"/>
    <path class="c2" d="m 27.276805,13.00595 c 2.836012,0 4.605412,-1.71153 4.605412,-4.72116 0,-2.95176 -1.79421,-4.71289 -4.605412,-4.71289 -2.79466,0 -4.6054,1.7694 -4.6054,4.71289 0,3.00136 1.7694,4.72116 4.6054,4.72116 z m 0,-2.14974 c -1.00872,0 -1.62884,-0.91778 -1.62884,-2.56315 0,-1.62058 0.63666,-2.57142 1.62884,-2.57142 1.000462,0 1.637112,0.95084 1.637112,2.57142 0,1.64537 -0.63665,2.56315 -1.637112,2.56315 z"/>
    <path class="c2" d="m 34.486707,12.98114 c 0.89297,0 1.46348,-0.52917 1.46348,-1.52135 v -3.514 c 0,-1.02526 0.28938,-1.47174 1.29811,-1.49655 0.5457,-0.0248 0.95911,-0.14883 1.23196,-0.39687 0.27286,-0.23978 0.41342,-0.58705 0.41342,-1.05007 0,-0.52917 -0.14883,-0.90124 -0.43822,-1.11621 -0.19017,-0.1571 -0.45475,-0.23151 -0.78548,-0.23151 -0.90124,0 -1.5627,0.64492 -1.78594,1.86035 h -0.0579 v -0.44648 c 0,-0.95085 -0.56224,-1.47175 -1.3808,-1.47175 -0.85162,0 -1.4304,0.5209 -1.4304,1.46348 v 6.39961 c 0,0.99218 0.57051,1.52135 1.47175,1.52135 z"/>
    <path class="c1" d="m 40.472907,12.89844 c 0.85162,0 1.53789,-0.68626 1.53789,-1.53789 0,-0.85163 -0.68627,-1.53789 -1.53789,-1.53789 -0.85163,0 -1.52963,0.68626 -1.52963,1.53789 0,0.85163 0.678,1.53789 1.52963,1.53789 z"/>
    <path class="c2" d="m 46.326807,12.92324 c 1.08314,0 2.18282,-0.50436 2.67064,-1.41387 h 0.0579 v 0.20671 c 0.0827,0.8599 0.63666,1.26504 1.41387,1.26504 0.83509,0 1.43867,-0.47129 1.43867,-1.47175 v -4.89479 c 0,-1.81074 -1.59577,-3.04271 -4.00182,-3.04271 -2.06706,0 -3.57188,0.678 -3.95222,1.79421 -0.0661,0.17363 -0.0909,0.32246 -0.0909,0.52917 0,0.62838 0.4961,1.0666 1.1989,1.0666 0.44648,0 0.81855,-0.16537 1.15755,-0.50436 0.56224,-0.61185 0.90951,-0.79375 1.53789,-0.79375 0.76895,0 1.28158,0.39687 1.28158,1.11621 v 0.51263 l -2.1084,0.12402 c -2.33164,0.14056 -3.62975,1.08314 -3.62975,2.76986 0,1.62884 1.34772,2.73678 3.02617,2.73678 z m 1.0418,-2.01745 c -0.7028,0 -1.17409,-0.34726 -1.17409,-0.91777 0,-0.52917 0.43822,-0.8847 1.20716,-0.94258 l 1.63711,-0.10749 v 0.62012 c 0,0.80202 -0.77721,1.34772 -1.67018,1.34772 z"/>
    <path class="c1" d="m 54.793477,2.86907 c 0.85163,0 1.49655,-0.62011 1.49655,-1.4304 0,-0.81855 -0.64492,-1.43867 -1.49655,-1.43867 -0.85163,0 -1.50482,0.62012 -1.50482,1.43867 0,0.81029 0.65319,1.4304 1.50482,1.4304 z"/>
    <path class="c2" d="m 54.793477,12.98112 c 0.91777,0 1.46348,-0.55397 1.46348,-1.52136 v -6.34173 c 0,-0.95911 -0.54571,-1.52135 -1.46348,-1.52135 -0.92604,0 -1.46348,0.56224 -1.46348,1.52135 v 6.34173 c 0,0.96739 0.53744,1.52136 1.46348,1.52136 z"/>
  </g>
</svg>
